<?xml version="1.0" encoding="UTF-8"?>
<svg width="27px" height="34px" viewBox="0 0 27 34" version="1.1" xmlns="http://www.w3.org/2000/svg" xmlns:xlink="http://www.w3.org/1999/xlink">
    <!-- Generator: Sketch 43.2 (39069) - http://www.bohemiancoding.com/sketch -->
    <title>glpyh-micah-logo</title>
    <desc>Created with Sketch.</desc>
    <defs>
        <polygon id="path-1" points="0.201467037 0.16740625 4.67191232 0.16740625 4.67191232 10.4572601 0.201467037 10.4572601"></polygon>
        <polygon id="path-3" points="0.161040311 0.16740625 4.631338 0.16740625 4.631338 10.4572601 0.161040311 10.4572601 0.161040311 0.16740625"></polygon>
        <polygon id="path-5" points="0.120317151 0.16740625 4.59088445 0.16740625 4.59088445 10.4572601 0.120317151 10.4572601 0.120317151 0.16740625"></polygon>
        <polygon id="path-7" points="0.0797752362 0.16740625 4.55031012 0.16740625 4.55031012 10.4572601 0.0797752362 10.4572601 0.0797752362 0.16740625"></polygon>
    </defs>
    <g id="Page-1" stroke="none" stroke-width="1" fill="none" fill-rule="evenodd">
        <g id="landing-04" transform="translate(-21.000000, -19.000000)">
            <g id="glpyh-micah-logo" transform="translate(22.000000, 19.000000)">
                <path d="M25,20.113775 C25,27.1383062 19.4037162,32.832525 12.5,32.832525 C5.59628378,32.832525 0,27.1383062 0,20.113775" id="Stroke-1" stroke="#2B28EE" stroke-width="2" stroke-linecap="round" stroke-linejoin="round"></path>
                <path d="M3.77246622,19.3118062 C3.77246622,17.4449 5.25996622,15.9317125 7.09442568,15.9317125 C8.92922297,15.9317125 10.416723,17.4449 10.416723,19.3118062" id="Stroke-3" stroke="#2B28EE" stroke-width="2" stroke-linecap="round" stroke-linejoin="round"></path>
                <path d="M14.1730068,19.3118062 C14.1730068,17.4449 15.6601689,15.9317125 17.4949662,15.9317125 C19.3297635,15.9317125 20.8172635,17.4449 20.8172635,19.3118062" id="Stroke-5" stroke="#2B28EE" stroke-width="2" stroke-linecap="round" stroke-linejoin="round"></path>
                <g id="Group-9" transform="translate(1.013514, 0.176412)">
                    <mask id="mask-2" fill="white">
                        <use xlink:href="#path-1"></use>
                    </mask>
                    <g id="Clip-8"></g>
                    <path d="M3.55472973,9.41689375 C2.80168919,9.38595625 4.16351351,8.1426125 4.34527027,7.803675 C4.51993243,7.47814375 4.72331081,7.02714375 4.66013514,6.645925 C4.49966216,5.677925 3.31756757,5.4517375 2.56587838,5.243425 C2.36385135,5.18739375 1.81621622,5.1513 1.66891892,5.004175 C1.48918919,4.8247375 1.71452703,4.89555 2.02027027,4.6129875 C2.30945946,4.3462375 2.69898649,4.13208125 2.87331081,3.7543 C3.42195946,2.5656125 1.58175676,1.75264375 3.35033784,1.1961125 C3.97668919,0.9988 3.70945946,-0.00529375 3.07837838,0.19305 C2.51891892,0.36939375 1.72162162,0.5924875 1.41756757,1.1748 C1.11351351,1.75676875 1.43817568,1.990175 1.56182432,2.54533125 C1.63817568,2.647425 1.71452703,2.74951875 1.79087838,2.85126875 C1.71587838,3.4401125 1.44121622,3.8588 0.96722973,4.1069875 C0.825675676,4.24414375 0.486148649,4.401925 0.365878378,4.59958125 C0.172635135,4.9168625 0.13277027,5.177425 0.338175676,5.49058125 C0.651351351,5.966675 1.60168919,6.06258125 2.06756757,6.1873625 C2.62736486,6.337925 3.58547297,6.35614375 3.46283784,7.278425 C3.38445946,7.86589375 2.3902027,8.27701875 2.06655405,8.6953625 C1.13108108,9.90501875 2.53547297,10.4151437 3.55472973,10.4567375 C4.2125,10.4838937 4.21114865,9.44370625 3.55472973,9.41689375" id="Fill-7" fill="#2B28EE" mask="url(#mask-2)"></path>
                </g>
                <g id="Group-12" transform="translate(7.094595, 0.176412)">
                    <mask id="mask-4" fill="white">
                        <use xlink:href="#path-3"></use>
                    </mask>
                    <g id="Clip-11"></g>
                    <path d="M3.51415541,9.41689375 C2.76111486,9.38595625 4.12293919,8.1426125 4.30469595,7.803675 C4.47935811,7.47814375 4.68273649,7.02714375 4.61956081,6.645925 C4.45942568,5.677925 3.27699324,5.4517375 2.52564189,5.243425 C2.32327703,5.18739375 1.77564189,5.1513 1.62834459,5.004175 C1.44861486,4.8247375 1.6739527,4.89555 1.97969595,4.6129875 C2.26888514,4.3462375 2.65841216,4.13208125 2.83273649,3.7543 C3.38138514,2.5656125 1.54118243,1.75264375 3.30976351,1.1961125 C3.93611486,0.9988 3.66888514,-0.00529375 3.03780405,0.19305 C2.47834459,0.36939375 1.6810473,0.5924875 1.37699324,1.1748 C1.07293919,1.75676875 1.39793919,1.990175 1.52125,2.54533125 C1.59760135,2.647425 1.6739527,2.74951875 1.75030405,2.85126875 C1.67530405,3.4401125 1.40064189,3.8588 0.926655405,4.1069875 C0.785101351,4.24414375 0.445574324,4.401925 0.325641892,4.59958125 C0.132398649,4.9168625 0.0921959459,5.177425 0.297601351,5.49058125 C0.611114865,5.966675 1.56111486,6.06258125 2.02699324,6.1873625 C2.58679054,6.337925 3.54489865,6.35614375 3.42226351,7.278425 C3.34422297,7.86589375 2.34962838,8.27701875 2.02597973,8.6953625 C1.09050676,9.90501875 2.49523649,10.4151437 3.51415541,10.4567375 C4.17192568,10.4838937 4.17091216,9.44370625 3.51415541,9.41689375" id="Fill-10" fill="#2B28EE" mask="url(#mask-4)"></path>
                </g>
                <g id="Group-15" transform="translate(13.175676, 0.176412)">
                    <mask id="mask-6" fill="white">
                        <use xlink:href="#path-5"></use>
                    </mask>
                    <g id="Clip-14"></g>
                    <path d="M3.47371622,9.41689375 C2.72067568,9.38595625 4.0825,8.1426125 4.26425676,7.803675 C4.43858108,7.47814375 4.6422973,7.02714375 4.57912162,6.645925 C4.41864865,5.677925 3.23655405,5.4517375 2.48486486,5.243425 C2.28283784,5.18739375 1.7352027,5.1513 1.58790541,5.004175 C1.40817568,4.8247375 1.63351351,4.89555 1.93925676,4.6129875 C2.22810811,4.3462375 2.61797297,4.13208125 2.7922973,3.7543 C3.34060811,2.5656125 1.50040541,1.75264375 3.26932432,1.1961125 C3.89533784,0.9988 3.62810811,-0.00529375 2.99736486,0.19305 C2.43790541,0.36939375 1.64060811,0.5924875 1.33655405,1.1748 C1.0325,1.75676875 1.35716216,1.990175 1.48081081,2.54533125 C1.55682432,2.647425 1.63351351,2.74951875 1.70952703,2.85126875 C1.63486486,3.4401125 1.3602027,3.8588 0.886216216,4.1069875 C0.744662162,4.24414375 0.405135135,4.401925 0.284864865,4.59958125 C0.0916216216,4.9168625 0.0514189189,5.177425 0.257162162,5.49058125 C0.570337838,5.966675 1.52067568,6.06258125 1.98655405,6.1873625 C2.54635135,6.337925 3.50445946,6.35614375 3.38182432,7.278425 C3.30344595,7.86589375 2.30918919,8.27701875 1.98554054,8.6953625 C1.04972973,9.90501875 2.45445946,10.4151437 3.47371622,10.4567375 C4.13148649,10.4838937 4.13013514,9.44370625 3.47371622,9.41689375" id="Fill-13" fill="#2B28EE" mask="url(#mask-6)"></path>
                </g>
                <g id="Group-18" transform="translate(19.256757, 0.176412)">
                    <mask id="mask-8" fill="white">
                        <use xlink:href="#path-7"></use>
                    </mask>
                    <g id="Clip-17"></g>
                    <path d="M3.43314189,9.41689375 C2.68010135,9.38595625 4.04192568,8.1426125 4.22368243,7.803675 C4.39800676,7.47814375 4.60172297,7.02714375 4.5385473,6.645925 C4.37841216,5.677925 3.19631757,5.4517375 2.44429054,5.243425 C2.24226351,5.18739375 1.69462838,5.1513 1.54733108,5.004175 C1.36760135,4.8247375 1.59293919,4.89555 1.89868243,4.6129875 C2.18753378,4.3462375 2.57773649,4.13208125 2.75172297,3.7543 C3.30003378,2.5656125 1.45983108,1.75264375 3.22875,1.1961125 C3.85510135,0.9988 3.58753378,-0.00529375 2.95679054,0.19305 C2.39733108,0.36939375 1.60003378,0.5924875 1.29597973,1.1748 C0.991925676,1.75676875 1.31658784,1.990175 1.44023649,2.54533125 C1.51658784,2.647425 1.59293919,2.74951875 1.66929054,2.85126875 C1.59429054,3.4401125 1.31962838,3.8588 0.845641892,4.1069875 C0.704087838,4.24414375 0.364560811,4.401925 0.244628378,4.59958125 C0.0510472973,4.9168625 0.0108445946,5.177425 0.216587838,5.49058125 C0.529763514,5.966675 1.48010135,6.06258125 1.94597973,6.1873625 C2.50577703,6.337925 3.46388514,6.35614375 3.34125,7.278425 C3.26287162,7.86589375 2.26861486,8.27701875 1.94496622,8.6953625 C1.00949324,9.90501875 2.41388514,10.4151437 3.43314189,10.4567375 C4.09091216,10.4838937 4.08956081,9.44370625 3.43314189,9.41689375" id="Fill-16" fill="#2B28EE" mask="url(#mask-8)"></path>
                </g>
            </g>
        </g>
    </g>
</svg>